<svg xmlns="http://www.w3.org/2000/svg" id="SvgjsSvg469249" width="4096" height="3339.38862012111" version="1.1" xmlns:xlink="http://www.w3.org/1999/xlink" xmlns:svgjs="http://svgjs.com/svgjs"><defs id="SvgjsDefs469250"></defs><g id="SvgjsG469251" transform="translate(328, 328) scale(34.4)" opacity="1"><defs id="SvgjsDefs117874"></defs><g id="SvgjsG117875" transform="scale(0.27462744006708795)" opacity="1"><g id="SvgjsG117876" class="8Vg7qPs3G" transform="translate(107.872447920198, -8.905721762771837) scale(1.48434503475257)" light-content="false" non-strokable="false" fill="#7ac926"><path d="M32.813 50.453C24.919 39.577 14.21 32.557 9.769 29.942a1.701 1.701 0 0 0-2.532 1.131C5.03 42.282 3.943 54.115 6.41 65.381c2.57 11.734 9.291 21.146 19.93 26.622-5.816-8.7-9.74-17.743-12.304-27.872-.306-1.212.955-.865 1.313-.102 3.85 8.275 8.424 15.49 14.511 22.31.453.507.923.991 1.394 1.464-2.441-8.054-4.303-20.437.395-34.257.354-1.04.747-2.07 1.164-3.093zm14.842 42.604c9.313-2.742 18.086-8.217 24.944-15.08 10.614-10.619 16.79-24.837 19.834-39.412a119.104 119.104 0 0 0 2.345-30.353 2.319 2.319 0 0 0-1.625-2.102 2.322 2.322 0 0 0-1.587.063C19.343 35.285 31.376 79.19 36.72 91.893a99.333 99.333 0 0 0 2.241-2.02c2.39-2.287 4.68-4.68 6.879-7.155C61.945 64.59 74.33 43.513 86.053 22.364a.627.627 0 0 1 .856-.258c.285.16.397.512.267.806-4.26 9.696-10.437 25.48-18.393 39.27-9.657 16.737-20.89 30.804-21.128 30.875z" fill-rule="evenodd"></path></g><g id="SvgjsG117877" class="text" transform="translate(181.02, 246.1280375330757) scale(1)" light-content="false" fill="#497c11"><path d="M-77.59 -22.74L-77.59 -26.34C-77.59 -30 -78 -33.35 -78.82 -36.38C-79.64 -39.41 -80.74 -42.13 -82.14 -44.53C-83.53 -46.94 -85.16 -49.06 -87.01 -50.89C-88.86 -52.71 -90.85 -54.28 -92.96 -55.58C-90.51 -58.99 -88.73 -62.61 -87.62 -66.44C-86.52 -70.27 -85.96 -73.84 -85.96 -77.16L-85.96 -80.69C-85.96 -84.88 -86.72 -88.42 -88.24 -91.3C-89.75 -94.19 -91.65 -96.54 -93.94 -98.34C-96.23 -100.15 -98.69 -101.46 -101.34 -102.28C-103.98 -103.09 -106.46 -103.5 -108.77 -103.5L-171.57 -103.5C-172.91 -103.5 -174.16 -103.26 -175.32 -102.78C-176.47 -102.3 -177.47 -101.63 -178.32 -100.76C-179.16 -99.89 -179.82 -98.88 -180.3 -97.73C-180.78 -96.57 -181.02 -95.35 -181.02 -94.05L-181.02 -9.46C-181.02 -8.11 -180.78 -6.86 -180.3 -5.7C-179.82 -4.55 -179.16 -3.55 -178.32 -2.71C-177.47 -1.86 -176.47 -1.2 -175.32 -0.72C-174.17 -0.24 -172.91 0 -171.57 0L-100.33 0C-96.14 0 -92.6 -0.76 -89.72 -2.27C-86.83 -3.79 -84.48 -5.68 -82.68 -7.94C-80.88 -10.2 -79.58 -12.66 -78.78 -15.3C-77.99 -17.95 -77.59 -20.43 -77.59 -22.74ZM-96.36 -26.34L-96.36 -22.88C-96.36 -21.87 -96.5 -21.08 -96.79 -20.5C-97.08 -19.92 -97.42 -19.51 -97.8 -19.27C-98.19 -19.03 -98.62 -18.89 -99.1 -18.84C-99.58 -18.79 -99.99 -18.77 -100.33 -18.77L-162.26 -18.77L-162.26 -84.74L-108.77 -84.74C-106.17 -84.74 -104.87 -83.39 -104.87 -80.69L-104.87 -77.16C-104.87 -74.7 -105.25 -72.5 -105.99 -70.55C-106.74 -68.6 -107.81 -66.93 -109.2 -65.54C-110.6 -64.14 -112.28 -63.07 -114.26 -62.33C-116.23 -61.58 -118.44 -61.21 -120.9 -61.21L-154.75 -61.21L-154.75 -42.3L-112.45 -42.3C-110 -42.3 -107.79 -41.92 -105.81 -41.18C-103.84 -40.43 -102.16 -39.36 -100.76 -37.97C-99.36 -36.57 -98.28 -34.9 -97.51 -32.95C-96.74 -31 -96.36 -28.8 -96.36 -26.34Z M59.19 0L59.19 -95.49C59.19 -97.66 58.54 -99.58 57.24 -101.27C55.94 -102.95 54.28 -104.08 52.26 -104.66C50.14 -105.19 48.11 -105.07 46.16 -104.3C44.21 -103.53 42.68 -102.23 41.57 -100.4L-1.15 -26.13L-43.88 -100.4C-44.41 -101.31 -45.06 -102.1 -45.83 -102.75C-46.6 -103.39 -47.46 -103.9 -48.4 -104.26C-49.33 -104.62 -50.31 -104.84 -51.32 -104.91C-52.33 -104.98 -53.34 -104.9 -54.35 -104.66C-56.42 -104.08 -58.09 -102.95 -59.37 -101.27C-60.64 -99.58 -61.28 -97.66 -61.28 -95.49L-61.28 0L-42.51 0L-42.51 -61.64L-9.09 -3.1C-8.28 -1.61 -7.16 -0.48 -5.74 0.29C-4.32 1.06 -2.79 1.44 -1.15 1.44C0.53 1.44 2.11 1.06 3.57 0.29C5.04 -0.48 6.18 -1.61 7 -3.1L40.28 -61.64L40.28 0Z M183.12 -9.46L183.12 -51.75C183.12 -53.05 182.87 -54.27 182.39 -55.4C181.91 -56.53 181.25 -57.53 180.41 -58.39C179.57 -59.26 178.57 -59.94 177.41 -60.45C176.26 -60.95 175.01 -61.21 173.66 -61.21L114.4 -61.21L114.4 -42.3L164.35 -42.3L164.35 -18.77L105.96 -18.77C103.55 -18.77 101.69 -19.43 100.36 -20.75C99.04 -22.07 98.38 -23.94 98.38 -26.34L98.38 -77.01C98.38 -79.56 99.03 -81.49 100.33 -82.79C101.63 -84.09 103.5 -84.74 105.96 -84.74L182.25 -84.74L182.25 -103.5L105.96 -103.5C102.73 -103.5 99.85 -103.09 97.3 -102.28C94.75 -101.46 92.5 -100.36 90.55 -98.99C88.6 -97.62 86.93 -96.04 85.53 -94.26C84.14 -92.48 83 -90.62 82.14 -88.67C81.27 -86.72 80.63 -84.75 80.23 -82.75C79.82 -80.75 79.61 -78.89 79.61 -77.16L79.61 -26.34C79.61 -23.12 80.02 -20.22 80.84 -17.65C81.66 -15.07 82.75 -12.81 84.12 -10.86C85.49 -8.91 87.07 -7.25 88.85 -5.88C90.63 -4.51 92.5 -3.39 94.44 -2.53C96.39 -1.66 98.37 -1.02 100.36 -0.61C102.36 -0.2 104.22 0 105.96 0L173.66 0C175.01 0 176.26 -0.24 177.41 -0.72C178.57 -1.2 179.57 -1.86 180.41 -2.71C181.25 -3.55 181.91 -4.55 182.39 -5.7C182.87 -6.86 183.12 -8.11 183.12 -9.46Z"></path></g><rect id="SvgjsRect117878" width="75.77265314226807" height="1.168439872248815" fill="#db1830" transform="translate(0, 276.3989095952026) scale(1)" light-content="false"></rect><g id="SvgjsG117879" class="text" transform="translate(181.11709328271303, 283.79111167651826) scale(1)" light-content="false" fill="#e7142d"><path d="M-69.94 -16.89C-70.14 -17.1 -70.39 -17.2 -70.7 -17.2C-71.01 -17.2 -71.27 -17.1 -71.47 -16.89C-71.68 -16.69 -71.78 -16.43 -71.78 -16.12L-71.78 -4.18L-81.41 -16.78C-81.51 -16.91 -81.65 -17.01 -81.83 -17.09C-82.01 -17.16 -82.2 -17.2 -82.4 -17.2C-82.72 -17.2 -83 -17.09 -83.22 -16.87C-83.44 -16.65 -83.55 -16.36 -83.55 -16.02L-83.55 -1.08C-83.55 -0.77 -83.45 -0.51 -83.26 -0.31C-83.06 -0.1 -82.81 0 -82.49 0C-82.18 0 -81.92 -0.1 -81.72 -0.31C-81.52 -0.51 -81.41 -0.77 -81.41 -1.08L-81.41 -12.92L-71.76 -0.34C-71.66 -0.23 -71.52 -0.14 -71.35 -0.09C-71.18 -0.03 -71 0 -70.82 0C-70.48 0 -70.2 -0.11 -69.98 -0.34C-69.75 -0.57 -69.64 -0.86 -69.64 -1.2L-69.64 -16.12C-69.64 -16.43 -69.74 -16.69 -69.94 -16.89Z M-54.57 -12.72C-54.79 -12.94 -55.07 -13.05 -55.42 -13.05C-55.76 -13.05 -56.04 -12.93 -56.25 -12.7C-56.47 -12.47 -56.57 -12.19 -56.57 -11.84L-56.57 -11.25C-57.01 -11.81 -57.61 -12.27 -58.35 -12.63C-59.1 -12.99 -59.91 -13.17 -60.77 -13.17C-61.86 -13.17 -62.85 -12.88 -63.75 -12.31C-64.65 -11.74 -65.36 -10.94 -65.87 -9.91C-66.39 -8.89 -66.65 -7.74 -66.65 -6.46C-66.65 -5.18 -66.39 -4.03 -65.87 -3.01C-65.36 -1.99 -64.64 -1.19 -63.73 -0.61C-62.83 -0.04 -61.81 0.25 -60.7 0.25C-59.85 0.25 -59.05 0.05 -58.32 -0.36C-57.58 -0.76 -57 -1.24 -56.57 -1.82L-56.57 -1.18C-56.57 -0.84 -56.47 -0.55 -56.25 -0.33C-56.04 -0.11 -55.76 0 -55.42 0C-55.07 0 -54.79 -0.11 -54.57 -0.34C-54.35 -0.57 -54.24 -0.85 -54.24 -1.18L-54.24 -11.84C-54.24 -12.2 -54.35 -12.49 -54.57 -12.72ZM-58.38 -2.51C-58.98 -2.11 -59.66 -1.92 -60.43 -1.92C-61.2 -1.92 -61.88 -2.11 -62.48 -2.51C-63.08 -2.9 -63.55 -3.44 -63.88 -4.13C-64.22 -4.82 -64.39 -5.59 -64.39 -6.46C-64.39 -7.33 -64.22 -8.11 -63.88 -8.8C-63.55 -9.48 -63.08 -10.02 -62.48 -10.42C-61.88 -10.81 -61.2 -11.01 -60.43 -11.01C-59.66 -11.01 -58.98 -10.81 -58.38 -10.41C-57.78 -10 -57.31 -9.46 -56.98 -8.77C-56.64 -8.08 -56.47 -7.31 -56.47 -6.46C-56.47 -5.59 -56.64 -4.82 -56.98 -4.13C-57.31 -3.44 -57.78 -2.9 -58.38 -2.51Z M-47.29 -10.59L-45.25 -10.59C-44.93 -10.59 -44.68 -10.69 -44.47 -10.88C-44.27 -11.08 -44.16 -11.33 -44.16 -11.65C-44.16 -11.96 -44.27 -12.22 -44.47 -12.42C-44.68 -12.62 -44.93 -12.73 -45.25 -12.73L-47.29 -12.73L-47.29 -14.79C-47.29 -15.12 -47.4 -15.4 -47.62 -15.63C-47.84 -15.86 -48.11 -15.97 -48.44 -15.97C-48.78 -15.97 -49.07 -15.86 -49.29 -15.63C-49.51 -15.4 -49.62 -15.12 -49.62 -14.79L-49.62 -12.73L-51.04 -12.73C-51.36 -12.73 -51.61 -12.63 -51.82 -12.43C-52.02 -12.24 -52.13 -11.98 -52.13 -11.67C-52.13 -11.36 -52.02 -11.1 -51.82 -10.9C-51.61 -10.69 -51.36 -10.59 -51.04 -10.59L-49.62 -10.59L-49.62 -3.17C-49.62 -2.22 -49.44 -1.51 -49.09 -1.04C-48.74 -0.58 -48.34 -0.29 -47.89 -0.17C-47.44 -0.06 -46.94 0 -46.4 0C-45.91 0 -45.47 -0.12 -45.07 -0.37C-44.68 -0.61 -44.48 -0.91 -44.48 -1.25C-44.48 -1.53 -44.56 -1.76 -44.71 -1.94C-44.85 -2.12 -45.03 -2.21 -45.25 -2.21C-45.36 -2.21 -45.52 -2.18 -45.71 -2.13C-45.91 -2.07 -46.06 -2.04 -46.18 -2.04C-46.92 -2.04 -47.29 -2.45 -47.29 -3.27Z M-31.01 -12.53C-31.23 -12.76 -31.51 -12.87 -31.86 -12.87C-32.18 -12.87 -32.46 -12.76 -32.68 -12.53C-32.9 -12.3 -33.01 -12.02 -33.01 -11.7L-33.01 -5.16C-33.01 -4.1 -33.27 -3.29 -33.8 -2.75C-34.32 -2.21 -35.08 -1.94 -36.08 -1.94C-38.1 -1.94 -39.1 -3.01 -39.1 -5.16L-39.1 -11.7C-39.1 -12.02 -39.21 -12.3 -39.43 -12.53C-39.66 -12.76 -39.94 -12.87 -40.28 -12.87C-40.61 -12.87 -40.88 -12.76 -41.11 -12.53C-41.33 -12.3 -41.44 -12.02 -41.44 -11.7L-41.44 -5.16C-41.44 -3.46 -40.97 -2.13 -40.04 -1.19C-39.1 -0.25 -37.78 0.22 -36.08 0.22C-34.36 0.22 -33.03 -0.25 -32.09 -1.19C-31.15 -2.13 -30.68 -3.46 -30.68 -5.16L-30.68 -11.7C-30.68 -12.02 -30.79 -12.3 -31.01 -12.53Z M-19.67 -12.84C-19.98 -13.06 -20.35 -13.17 -20.77 -13.17C-21.69 -13.15 -22.51 -12.9 -23.23 -12.4C-23.95 -11.9 -24.49 -11.24 -24.85 -10.44L-24.85 -11.7C-24.85 -12.02 -24.96 -12.3 -25.18 -12.53C-25.41 -12.76 -25.69 -12.87 -26.03 -12.87C-26.36 -12.87 -26.63 -12.76 -26.86 -12.53C-27.08 -12.3 -27.19 -12.02 -27.19 -11.7L-27.19 -1.18C-27.19 -0.84 -27.08 -0.55 -26.87 -0.33C-26.65 -0.11 -26.38 0 -26.03 0C-25.69 0 -25.41 -0.11 -25.18 -0.34C-24.96 -0.57 -24.85 -0.85 -24.85 -1.18L-24.85 -7.1C-24.85 -7.85 -24.7 -8.54 -24.4 -9.15C-24.1 -9.77 -23.7 -10.25 -23.22 -10.6C-22.74 -10.95 -22.24 -11.13 -21.73 -11.13C-21.54 -11.13 -21.27 -11.07 -20.92 -10.96C-20.63 -10.86 -20.41 -10.81 -20.26 -10.81C-19.96 -10.81 -19.71 -10.91 -19.51 -11.12C-19.3 -11.32 -19.2 -11.62 -19.2 -12.01C-19.2 -12.34 -19.36 -12.62 -19.67 -12.84Z M-6.65 -6.18C-6.42 -6.38 -6.29 -6.63 -6.28 -6.93C-6.29 -8.11 -6.58 -9.17 -7.14 -10.12C-7.69 -11.07 -8.43 -11.82 -9.35 -12.36C-10.27 -12.9 -11.25 -13.17 -12.3 -13.17C-13.36 -13.17 -14.36 -12.89 -15.28 -12.33C-16.21 -11.78 -16.95 -10.98 -17.52 -9.94C-18.08 -8.9 -18.37 -7.69 -18.37 -6.31C-18.37 -5.05 -18.09 -3.92 -17.54 -2.92C-16.99 -1.92 -16.22 -1.15 -15.21 -0.59C-14.2 -0.03 -13.03 0.25 -11.71 0.25C-10.89 0.25 -10.09 0.08 -9.3 -0.25C-8.51 -0.57 -7.88 -0.97 -7.41 -1.45C-7.08 -1.73 -6.92 -2.04 -6.92 -2.38C-6.92 -2.65 -7.01 -2.87 -7.2 -3.07C-7.39 -3.27 -7.62 -3.37 -7.9 -3.37C-8.13 -3.37 -8.37 -3.29 -8.61 -3.14C-8.99 -2.78 -9.42 -2.49 -9.91 -2.26C-10.41 -2.03 -11.04 -1.92 -11.83 -1.92C-12.98 -1.92 -13.95 -2.28 -14.74 -3C-15.54 -3.72 -15.99 -4.68 -16.11 -5.87L-7.46 -5.87C-7.15 -5.87 -6.88 -5.97 -6.65 -6.18ZM-14.68 -10.23C-14.01 -10.75 -13.21 -11.01 -12.3 -11.01C-11.41 -11.01 -10.62 -10.73 -9.93 -10.17C-9.23 -9.62 -8.84 -8.9 -8.76 -8.03L-8.76 -7.84L-16.01 -7.84C-15.79 -8.92 -15.35 -9.72 -14.68 -10.23Z M7.54 -15.58C7.8 -15.91 8.19 -16.07 8.73 -16.07C9 -16.07 9.31 -16.02 9.67 -15.92C9.96 -15.86 10.14 -15.82 10.21 -15.82C10.47 -15.82 10.7 -15.93 10.88 -16.13C11.07 -16.33 11.17 -16.59 11.17 -16.9C11.17 -17.31 10.95 -17.62 10.53 -17.83C10.1 -18.03 9.61 -18.13 9.05 -18.13C7.71 -18.13 6.67 -17.79 5.93 -17.11C5.2 -16.43 4.83 -15.52 4.83 -14.37L4.83 -12.65L3.3 -12.65C2.99 -12.65 2.73 -12.55 2.52 -12.35C2.31 -12.14 2.2 -11.88 2.2 -11.57C2.2 -11.26 2.31 -11.01 2.52 -10.81C2.73 -10.61 2.99 -10.52 3.3 -10.52L4.83 -10.52L4.83 -1.18C4.83 -0.85 4.94 -0.57 5.16 -0.34C5.38 -0.11 5.66 0 5.98 0C6.33 0 6.61 -0.11 6.83 -0.34C7.05 -0.57 7.16 -0.85 7.16 -1.18L7.16 -10.52L9.59 -10.52C9.92 -10.52 10.19 -10.61 10.39 -10.81C10.6 -11.01 10.7 -11.26 10.7 -11.57C10.7 -11.88 10.6 -12.14 10.39 -12.35C10.19 -12.55 9.92 -12.65 9.59 -12.65L7.16 -12.65L7.16 -14.37C7.16 -14.85 7.29 -15.25 7.54 -15.58Z M24.14 -3C24.71 -4.01 25 -5.16 25 -6.44C25 -7.71 24.71 -8.87 24.14 -9.9C23.57 -10.93 22.78 -11.74 21.79 -12.31C20.8 -12.88 19.71 -13.17 18.51 -13.17C17.32 -13.17 16.22 -12.88 15.23 -12.31C14.24 -11.74 13.46 -10.93 12.89 -9.9C12.31 -8.87 12.03 -7.71 12.03 -6.44C12.03 -5.16 12.31 -4.01 12.89 -3C13.46 -1.98 14.24 -1.19 15.23 -0.61C16.22 -0.04 17.32 0.25 18.51 0.25C19.71 0.25 20.8 -0.04 21.79 -0.61C22.78 -1.19 23.57 -1.98 24.14 -3ZM22.11 -8.81C22.48 -8.11 22.67 -7.32 22.67 -6.44C22.67 -5.57 22.48 -4.79 22.11 -4.1C21.74 -3.42 21.24 -2.88 20.61 -2.49C19.98 -2.11 19.28 -1.92 18.51 -1.92C17.74 -1.92 17.04 -2.11 16.41 -2.49C15.78 -2.88 15.28 -3.42 14.91 -4.1C14.55 -4.79 14.36 -5.57 14.36 -6.44C14.36 -7.32 14.55 -8.11 14.91 -8.81C15.28 -9.5 15.78 -10.05 16.41 -10.43C17.04 -10.81 17.74 -11.01 18.51 -11.01C19.28 -11.01 19.98 -10.81 20.61 -10.43C21.24 -10.05 21.74 -9.5 22.11 -8.81Z M35.22 -12.84C34.91 -13.06 34.54 -13.17 34.12 -13.17C33.2 -13.15 32.38 -12.9 31.66 -12.4C30.94 -11.9 30.4 -11.24 30.04 -10.44L30.04 -11.7C30.04 -12.02 29.93 -12.3 29.71 -12.53C29.48 -12.76 29.2 -12.87 28.86 -12.87C28.53 -12.87 28.26 -12.76 28.03 -12.53C27.81 -12.3 27.7 -12.02 27.7 -11.7L27.7 -1.18C27.7 -0.84 27.81 -0.55 28.02 -0.33C28.24 -0.11 28.51 0 28.86 0C29.2 0 29.48 -0.11 29.71 -0.34C29.93 -0.57 30.04 -0.85 30.04 -1.18L30.04 -7.1C30.04 -7.85 30.19 -8.54 30.49 -9.15C30.79 -9.77 31.19 -10.25 31.67 -10.6C32.15 -10.95 32.65 -11.13 33.16 -11.13C33.35 -11.13 33.62 -11.07 33.97 -10.96C34.26 -10.86 34.48 -10.81 34.63 -10.81C34.93 -10.81 35.18 -10.91 35.38 -11.12C35.59 -11.32 35.69 -11.62 35.69 -12.01C35.69 -12.34 35.53 -12.62 35.22 -12.84Z M55.28 -1.97C55.06 -2.18 54.78 -2.29 54.43 -2.29L47.38 -2.29L47.38 -16.02C47.38 -16.35 47.26 -16.63 47.03 -16.86C46.79 -17.08 46.51 -17.2 46.18 -17.2C45.82 -17.2 45.52 -17.08 45.29 -16.86C45.07 -16.63 44.95 -16.35 44.95 -16.02L44.95 -1.18C44.95 -0.85 45.06 -0.57 45.28 -0.34C45.5 -0.11 45.79 0 46.13 0L54.43 0C54.78 0 55.06 -0.11 55.28 -0.32C55.5 -0.53 55.61 -0.8 55.61 -1.13C55.61 -1.47 55.5 -1.75 55.28 -1.97Z M60.05 -0.34C60.27 -0.57 60.38 -0.85 60.38 -1.18L60.38 -11.82C60.38 -12.15 60.27 -12.42 60.05 -12.65C59.83 -12.88 59.55 -13 59.2 -13C58.87 -13 58.6 -12.88 58.38 -12.65C58.16 -12.42 58.05 -12.15 58.05 -11.82L58.05 -1.18C58.05 -0.85 58.16 -0.57 58.38 -0.34C58.6 -0.11 58.87 0 59.2 0C59.55 0 59.83 -0.11 60.05 -0.34ZM58.18 -14.88C58.39 -14.71 58.73 -14.62 59.2 -14.62C59.66 -14.62 60 -14.7 60.21 -14.86C60.42 -15.03 60.53 -15.31 60.53 -15.7L60.53 -16.09C60.53 -16.47 60.43 -16.74 60.22 -16.92C60.02 -17.09 59.68 -17.17 59.23 -17.17C58.77 -17.17 58.43 -17.09 58.21 -16.93C57.99 -16.76 57.87 -16.49 57.87 -16.09L57.87 -15.7C57.87 -15.32 57.98 -15.05 58.18 -14.88Z M68.06 -15.58C68.31 -15.91 68.71 -16.07 69.25 -16.07C69.51 -16.07 69.82 -16.02 70.18 -15.92C70.48 -15.86 70.66 -15.82 70.72 -15.82C70.99 -15.82 71.21 -15.93 71.4 -16.13C71.59 -16.33 71.68 -16.59 71.68 -16.9C71.68 -17.31 71.47 -17.62 71.04 -17.83C70.62 -18.03 70.13 -18.13 69.57 -18.13C68.23 -18.13 67.19 -17.79 66.45 -17.11C65.71 -16.43 65.34 -15.52 65.34 -14.37L65.34 -12.65L63.82 -12.65C63.51 -12.65 63.25 -12.55 63.03 -12.35C62.82 -12.14 62.72 -11.88 62.72 -11.57C62.72 -11.26 62.82 -11.01 63.03 -10.81C63.25 -10.61 63.51 -10.52 63.82 -10.52L65.34 -10.52L65.34 -1.18C65.34 -0.85 65.45 -0.57 65.68 -0.34C65.9 -0.11 66.17 0 66.5 0C66.84 0 67.13 -0.11 67.35 -0.34C67.57 -0.57 67.68 -0.85 67.68 -1.18L67.68 -10.52L70.11 -10.52C70.44 -10.52 70.7 -10.61 70.91 -10.81C71.11 -11.01 71.22 -11.26 71.22 -11.57C71.22 -11.88 71.11 -12.14 70.91 -12.35C70.7 -12.55 70.44 -12.65 70.11 -12.65L67.68 -12.65L67.68 -14.37C67.68 -14.85 67.81 -15.25 68.06 -15.58Z M84.26 -6.18C84.49 -6.38 84.62 -6.63 84.63 -6.93C84.62 -8.11 84.33 -9.17 83.77 -10.12C83.21 -11.07 82.48 -11.82 81.56 -12.36C80.64 -12.9 79.66 -13.17 78.61 -13.17C77.55 -13.17 76.55 -12.89 75.63 -12.33C74.7 -11.78 73.96 -10.98 73.39 -9.94C72.83 -8.9 72.54 -7.69 72.54 -6.31C72.54 -5.05 72.82 -3.92 73.37 -2.92C73.91 -1.92 74.69 -1.15 75.7 -0.59C76.71 -0.03 77.87 0.25 79.2 0.25C80.02 0.25 80.82 0.08 81.61 -0.25C82.4 -0.57 83.03 -0.97 83.5 -1.45C83.83 -1.73 83.99 -2.04 83.99 -2.38C83.99 -2.65 83.9 -2.87 83.71 -3.07C83.52 -3.27 83.29 -3.37 83.01 -3.37C82.78 -3.37 82.54 -3.29 82.3 -3.14C81.92 -2.78 81.49 -2.49 81 -2.26C80.5 -2.03 79.86 -1.92 79.08 -1.92C77.93 -1.92 76.96 -2.28 76.17 -3C75.37 -3.72 74.92 -4.68 74.8 -5.87L83.45 -5.87C83.76 -5.87 84.03 -5.97 84.26 -6.18ZM76.23 -10.23C76.9 -10.75 77.69 -11.01 78.61 -11.01C79.5 -11.01 80.29 -10.73 80.98 -10.17C81.68 -9.62 82.07 -8.9 82.15 -8.03L82.15 -7.84L74.9 -7.84C75.11 -8.92 75.56 -9.72 76.23 -10.23Z"></path></g><rect id="SvgjsRect117880" width="76.86382890423586" height="1.168439872248815" fill="#da1b32" transform="translate(287.2658442834517, 274.7761706448799) scale(1)" light-content="false"></rect></g></g></svg>